<svg xmlns="http://www.w3.org/2000/svg" viewBox="0 0 278.27 279.23"><path d="M190.91,3.42a134.42,134.42,0,0,0-26.14,4.25A141.63,141.63,0,0,0,114,33,144.34,144.34,0,0,0,83.94,65.91c-1.06,1.64-2.14,3.3-2.41,3.69-.47.72-1.15,1.89-3.19,5.54a149.59,149.59,0,0,0-11.86,28.55c-.19.71-.46,1.6-.58,2-.22.67-.55,2-1.53,6.32-.67,2.91-1.09,5.16-1.85,9.8-.27,1.64-.72,5.09-1.05,8-.09.86-.22,35.54-.28,77.07l-.12,75.5,73.94-.12c50-.08,74.91-.22,76.92-.42a158.42,158.42,0,0,0,19-2.93l2.2-.43a2,2,0,0,0,1.08-.41,1,1,0,0,1,.76-.25,6.7,6.7,0,0,0,1.48-.26l3-.9c4.11-1.22,8.85-2.82,10.94-3.67a140.66,140.66,0,0,0,16.47-7.66c21.69-11.85,39-28.43,52.86-50.76.63-1,.18-1-1.9.24a44.14,44.14,0,0,1-14.88,5,106.42,106.42,0,0,1-12.78.85l-2-.09L288.14,180c-.07-37.05,0-40.57.38-40.73.58-.23,12.47.37,14.75.73a44.18,44.18,0,0,1,5.4,1.17c.62.18,1.48.39,1.92.48a1.8,1.8,0,0,1,.94.4.69.69,0,0,0,.55.25c1.5,0,8.12,3.93,11.47,6.81,5.78,5,11.45,14.57,12.51,21.17.24,1.5.7.76,1.17-1.87.75-4.25.88-5,1.12-6.93a121.78,121.78,0,0,0,1-19c0-9.26-.16-12.22-1-18.46-.34-2.55-.79-5.53-1-6.25-.08-.32-.29-1.34-.47-2.28-.62-3.21-1.85-8.51-2.26-9.8-.13-.39-.39-1.28-.59-2-5.34-18.89-14.74-36.07-29-53-11.08-13.17-30.59-27.74-46.83-35-4.73-2.1-8.93-3.81-11.08-4.51-.7-.23-1.54-.52-1.85-.65s-1.52-.52-2.7-.87-2.38-.74-2.7-.87c-.9-.36-6.9-1.86-10.22-2.55L227,5.67c-9.91-2.09-23.89-3-36.08-2.25M145.74,139.68a18.38,18.38,0,0,0,1.85.64c24,7.21,25.73,42,2.48,50.91-.35.14-.93.36-1.28.51a16.7,16.7,0,0,1-1.91.55l-2.14.49c-.46.11-4.43.28-8.8.37l-8,.17-.07,13.56-.08,13.57-.63.15a20.83,20.83,0,0,1-3.34.08l-2.69-.08-.08-40.34c0-22.19,0-40.52.07-40.72.19-.49,23.44-.36,24.58.14M186.51,180V220.6h-6.25l-.08-40.34c0-22.19,0-40.51.07-40.71s.91-.34,3.2-.28l3.06.08V180m38.21-40.19a17.32,17.32,0,0,1,10.54,10.36c1.66,4.15.46,10.68-2.62,14.17-1.15,1.31-1.12,2.1.1,2.16,1.39.06,7.63,5.84,10.18,9.45,9.17,12.94,5.75,31.06-7.61,40.29-5.61,3.88-9.21,4.61-22,4.47l-8.09-.08-.08-40.34c0-22.19,0-40.52.08-40.73.2-.54,17.94-.31,19.46.25m45-.13c.27.69.2,80.33-.06,80.74s-1,.35-3.34.29l-3.1-.08-.07-40.47c-.06-32.18,0-40.51.28-40.69.73-.46,6.1-.28,6.29.21m-57.56,6.53c-.12.12-.22,4.17-.22,9V164l5.47-.1c5.29-.1,5.52-.13,7.08-.89,6.58-3.21,6.42-12.91-.26-16.13-1.4-.67-11.53-1.23-12.07-.67m-84.31,20.16v20h7.32c9.33,0,11.61-.5,16-3.44,13.24-8.88,11-29.83-3.78-35.4-3.16-1.19-3.4-1.21-11.54-1.21h-8v20m167,13.63V213.7l3.19-.19a37.36,37.36,0,0,0,12.29-2.65c15.61-6.24,23.7-25,18.13-42.11-.69-2.13-2.92-6.83-3.51-7.39a8.31,8.31,0,0,1-.68-1c-3.44-5.45-10.55-10.76-16.64-12.41a36.83,36.83,0,0,0-9.59-1.55l-3.19-.17V180M212,192.4l.07,21.38,5,.09c7.26.13,10-.52,14.11-3.29,3.66-2.5,8.91-9.42,8.91-11.75a6.79,6.79,0,0,1,.26-1.23c3.4-11.23-4.45-23.8-16.4-26.27a54.65,54.65,0,0,0-6.75-.31h-5.24L212,192.4m-61.11,37.76c2.43.72,1.37,4-1.3,4.05-2,0-2.71.71-2.71,2.47v1.1h1.85c2.16,0,2.6.55,2.27,2.77l-.18,1.21h-3.94V256l-.65.16a12.61,12.61,0,0,1-2.49.07l-1.84-.08-.07-7.18-.08-7.17h-2.86l.09-1.92.08-1.91,1.35-.09,1.35-.09V236.7c0-4.47,4.74-7.85,9.12-6.54m17,8.39c4.21,2.42,4.87,11.39,1.11,15.15a10,10,0,0,1-7.82,2.79c-1.82-.12-1.76-.27-1.76,4.29v3.64l-1.07.15a9.73,9.73,0,0,1-2.34,0l-1.28-.18V237.93h3.95l.19.93c.26,1.24.39,1.34,1,.7a6.47,6.47,0,0,1,8-1M125,244c.18,7.65.49,8.33,3.83,8.3,2.26,0,2.14.41,2.14-7.47v-7.1l2.34.08,2.34.09.08,8.7.07,8.69-.78.3c-2.72,1-8.51,1.15-10.76.21-3.43-1.43-4.09-3.31-4.09-11.68v-6.39l2.34.08,2.35.09L125,244M179.38,238a.85.85,0,0,1,.45.78c0,1.27.47,1.52,1.34.72,1.48-1.35,2.31-1.71,3.71-1.62l1.34.09v4.26l-1.7.08a3.48,3.48,0,0,0-3.37,1.91,32.21,32.21,0,0,0-.47,6.25l-.14,5.68h-4.83l-.08-9.16-.07-9.17h1.69a9.27,9.27,0,0,1,2.13.18M161,242.41c-1.76,1.41-2.46,9.27-.88,9.87,3.44,1.3,6-1,6-5.4s-2.46-6.55-5.07-4.47" transform="translate(-61.07 -3.17)" style="fill:#fff;fill-rule:evenodd"/></svg>